<svg width="21" height="28" viewBox="0 0 21 28" fill="none" xmlns="http://www.w3.org/2000/svg">
<path d="M5.51882 19.1165L5.40554 20.2493C5.31629 21.1555 5.14465 22.0584 4.89062 22.9577C4.64347 23.864 4.38258 24.6844 4.10795 25.419C3.8402 26.1536 3.62393 26.7304 3.45916 27.1491H0.616832C0.719815 26.7441 0.860559 26.1777 1.03906 25.4499C1.21757 24.729 1.38577 23.9189 1.54368 23.0195C1.70159 22.1201 1.80114 21.2036 1.84233 20.2699L1.89382 19.1165H5.51882ZM3.68572 11.1868C3.00604 11.1868 2.42247 10.9465 1.93501 10.4659C1.45443 9.98532 1.21413 9.40175 1.21413 8.7152C1.21413 8.04238 1.45443 7.4691 1.93501 6.99538C2.42247 6.5148 3.00604 6.2745 3.68572 6.2745C4.34482 6.2745 4.92152 6.5148 5.41584 6.99538C5.91016 7.4691 6.15732 8.04238 6.15732 8.7152C6.15732 9.17519 6.0406 9.59399 5.80717 9.97159C5.58061 10.3423 5.28196 10.6375 4.91122 10.8572C4.54048 11.0769 4.13198 11.1868 3.68572 11.1868ZM20.1561 13.5451C20.1561 16.1059 19.8128 18.4608 19.1263 20.6097C18.4466 22.7586 17.403 24.7496 15.9956 26.5827H11.8042C12.3397 25.9031 12.8374 25.0723 13.2974 24.0906C13.7574 23.1088 14.1591 22.0378 14.5023 20.8775C14.8456 19.7103 15.1134 18.502 15.3056 17.2525C15.4978 16.003 15.594 14.7672 15.594 13.5451C15.594 11.918 15.4257 10.2771 15.0893 8.62251C14.7598 6.96106 14.3067 5.42318 13.73 4.00888C13.1601 2.58771 12.5182 1.42401 11.8042 0.517755H15.9956C17.403 2.35085 18.4466 4.34186 19.1263 6.49077C19.8128 8.63968 20.1561 10.9911 20.1561 13.5451Z" fill="#E8E8E8"/>
</svg>
