<svg width="203" height="42" viewBox="0 0 203 42" fill="none" xmlns="http://www.w3.org/2000/svg">
<path d="M10.4403 34.3977C8.65057 34.3977 7.10938 33.9751 5.81676 33.13C4.52415 32.2848 3.52983 31.1206 2.83381 29.6374C2.13778 28.1542 1.78977 26.4598 1.78977 24.554C1.78977 22.6151 2.14607 20.904 2.85866 19.4208C3.57955 17.9293 4.58215 16.7652 5.86648 15.9283C7.15909 15.0831 8.66714 14.6605 10.3906 14.6605C11.733 14.6605 12.9427 14.9091 14.0199 15.4062C15.0971 15.9034 15.9795 16.5994 16.6673 17.4943C17.355 18.3892 17.7817 19.4332 17.9474 20.6264H15.0142C14.7905 19.7564 14.2933 18.9858 13.5227 18.3146C12.7604 17.6352 11.733 17.2955 10.4403 17.2955C9.29688 17.2955 8.29427 17.5937 7.43253 18.1903C6.57907 18.7786 5.91205 19.6114 5.43146 20.6886C4.95916 21.7575 4.72301 23.0128 4.72301 24.4545C4.72301 25.9295 4.95502 27.2138 5.41903 28.3075C5.89134 29.4013 6.55421 30.2506 7.40767 30.8555C8.26941 31.4603 9.2803 31.7628 10.4403 31.7628C11.2027 31.7628 11.8945 31.6302 12.516 31.3651C13.1374 31.0999 13.6636 30.7188 14.0945 30.2216C14.5253 29.7244 14.8319 29.1278 15.0142 28.4318H17.9474C17.7817 29.5587 17.3716 30.5737 16.717 31.4769C16.0707 32.3718 15.2131 33.0844 14.1442 33.6147C13.0836 34.1367 11.849 34.3977 10.4403 34.3977ZM27.8911 34.3977C26.1676 34.3977 24.6554 33.9876 23.3545 33.1673C22.0619 32.3469 21.051 31.1993 20.3219 29.7244C19.601 28.2495 19.2406 26.526 19.2406 24.554C19.2406 22.5653 19.601 20.8294 20.3219 19.3462C21.051 17.863 22.0619 16.7113 23.3545 15.891C24.6554 15.0707 26.1676 14.6605 27.8911 14.6605C29.6146 14.6605 31.1227 15.0707 32.4153 15.891C33.7162 16.7113 34.7271 17.863 35.4479 19.3462C36.1771 20.8294 36.5417 22.5653 36.5417 24.554C36.5417 26.526 36.1771 28.2495 35.4479 29.7244C34.7271 31.1993 33.7162 32.3469 32.4153 33.1673C31.1227 33.9876 29.6146 34.3977 27.8911 34.3977ZM27.8911 31.7628C29.2003 31.7628 30.2775 31.4272 31.1227 30.756C31.9678 30.0849 32.5934 29.2024 32.9994 28.1087C33.4054 27.0149 33.6085 25.83 33.6085 24.554C33.6085 23.2779 33.4054 22.0889 32.9994 20.9869C32.5934 19.8848 31.9678 18.9941 31.1227 18.3146C30.2775 17.6352 29.2003 17.2955 27.8911 17.2955C26.5819 17.2955 25.5048 17.6352 24.6596 18.3146C23.8144 18.9941 23.1888 19.8848 22.7828 20.9869C22.3768 22.0889 22.1738 23.2779 22.1738 24.554C22.1738 25.83 22.3768 27.0149 22.7828 28.1087C23.1888 29.2024 23.8144 30.0849 24.6596 30.756C25.5048 31.4272 26.5819 31.7628 27.8911 31.7628ZM26.5488 12.3239L29.5815 6.55682H33.0119L29.134 12.3239H26.5488ZM46.128 34.3977C44.5371 34.3977 43.1327 33.9959 41.9146 33.1921C40.6966 32.3801 39.7437 31.2366 39.0559 29.7617C38.3682 28.2785 38.0243 26.526 38.0243 24.5043C38.0243 22.4991 38.3682 20.759 39.0559 19.2841C39.7437 17.8092 40.7007 16.6699 41.927 15.8661C43.1534 15.0624 44.5703 14.6605 46.1778 14.6605C47.4206 14.6605 48.4025 14.8677 49.1234 15.282C49.8526 15.688 50.4077 16.152 50.7889 16.674C51.1783 17.1877 51.4808 17.6103 51.6962 17.9418H51.9448V8.54545H54.878V34H52.0442V31.0668H51.6962C51.4808 31.4148 51.1742 31.8539 50.7765 32.3842C50.3787 32.9062 49.8112 33.3744 49.0737 33.7887C48.3363 34.1947 47.3544 34.3977 46.128 34.3977ZM46.5258 31.7628C47.7024 31.7628 48.6967 31.4562 49.5087 30.843C50.3207 30.2216 50.938 29.364 51.3606 28.2702C51.7832 27.1682 51.9945 25.8963 51.9945 24.4545C51.9945 23.0294 51.7874 21.7823 51.3731 20.7134C50.9588 19.6362 50.3456 18.7994 49.5336 18.2028C48.7215 17.5979 47.7189 17.2955 46.5258 17.2955C45.2829 17.2955 44.2471 17.6145 43.4185 18.2525C42.5982 18.8822 41.9809 19.7398 41.5666 20.8253C41.1606 21.9025 40.9576 23.1122 40.9576 24.4545C40.9576 25.8134 41.1647 27.0481 41.579 28.1584C42.0016 29.2604 42.6231 30.1387 43.4434 30.7933C44.272 31.4396 45.2994 31.7628 46.5258 31.7628ZM58.5575 34V14.9091H61.4908V34H58.5575ZM60.049 11.7273C59.4773 11.7273 58.9842 11.5326 58.5699 11.1431C58.1639 10.7537 57.9609 10.2855 57.9609 9.73864C57.9609 9.19176 58.1639 8.7236 58.5699 8.33416C58.9842 7.94472 59.4773 7.75 60.049 7.75C60.6207 7.75 61.1096 7.94472 61.5156 8.33416C61.9299 8.7236 62.1371 9.19176 62.1371 9.73864C62.1371 10.2855 61.9299 10.7537 61.5156 11.1431C61.1096 11.5326 60.6207 11.7273 60.049 11.7273ZM72.4691 41.5568C71.0522 41.5568 69.8342 41.3745 68.815 41.0099C67.7958 40.6536 66.9465 40.1813 66.2671 39.593C65.5959 39.013 65.0615 38.3916 64.6637 37.7287L67.0004 36.0881C67.2655 36.4361 67.6011 36.8338 68.0071 37.2812C68.4131 37.737 68.9683 38.1306 69.6726 38.462C70.3852 38.8017 71.3174 38.9716 72.4691 38.9716C74.0103 38.9716 75.2822 38.5987 76.2848 37.853C77.2874 37.1072 77.7887 35.9389 77.7887 34.348V30.4702H77.5402C77.3247 30.8182 77.0181 31.2491 76.6204 31.7628C76.231 32.2682 75.6675 32.7198 74.9301 33.1175C74.2009 33.507 73.2149 33.7017 71.972 33.7017C70.4308 33.7017 69.047 33.3371 67.8207 32.608C66.6027 31.8788 65.6373 30.8182 64.9247 29.4261C64.2204 28.0341 63.8683 26.3437 63.8683 24.3551C63.8683 22.3996 64.2122 20.6969 64.8999 19.2468C65.5876 17.7885 66.5447 16.6616 67.771 15.8661C68.9973 15.0624 70.4142 14.6605 72.0217 14.6605C73.2646 14.6605 74.2506 14.8677 74.9798 15.282C75.7172 15.688 76.2807 16.152 76.6701 16.674C77.0679 17.1877 77.3744 17.6103 77.5899 17.9418H77.8882V14.9091H80.722V34.5469C80.722 36.1875 80.3491 37.5215 79.6034 38.549C78.8659 39.5848 77.8716 40.3429 76.6204 40.8235C75.3775 41.3124 73.9938 41.5568 72.4691 41.5568ZM72.3697 31.0668C73.5463 31.0668 74.5406 30.7975 75.3527 30.2589C76.1647 29.7203 76.782 28.9455 77.2046 27.9347C77.6272 26.9238 77.8385 25.714 77.8385 24.3054C77.8385 22.9299 77.6313 21.716 77.217 20.6637C76.8027 19.6114 76.1895 18.7869 75.3775 18.1903C74.5655 17.5937 73.5629 17.2955 72.3697 17.2955C71.1268 17.2955 70.0911 17.6103 69.2625 18.2401C68.4422 18.8698 67.8248 19.715 67.4105 20.7756C67.0045 21.8362 66.8015 23.0128 66.8015 24.3054C66.8015 25.6312 67.0087 26.8036 67.423 27.8228C67.8456 28.8337 68.467 29.6291 69.2873 30.2092C70.1159 30.7809 71.1434 31.0668 72.3697 31.0668ZM91.747 34.3977C90.0235 34.3977 88.5113 33.9876 87.2104 33.1673C85.9178 32.3469 84.9069 31.1993 84.1777 29.7244C83.4569 28.2495 83.0964 26.526 83.0964 24.554C83.0964 22.5653 83.4569 20.8294 84.1777 19.3462C84.9069 17.863 85.9178 16.7113 87.2104 15.891C88.5113 15.0707 90.0235 14.6605 91.747 14.6605C93.4705 14.6605 94.9785 15.0707 96.2711 15.891C97.572 16.7113 98.5829 17.863 99.3038 19.3462C100.033 20.8294 100.398 22.5653 100.398 24.554C100.398 26.526 100.033 28.2495 99.3038 29.7244C98.5829 31.1993 97.572 32.3469 96.2711 33.1673C94.9785 33.9876 93.4705 34.3977 91.747 34.3977ZM91.747 31.7628C93.0562 31.7628 94.1333 31.4272 94.9785 30.756C95.8237 30.0849 96.4493 29.2024 96.8553 28.1087C97.2613 27.0149 97.4643 25.83 97.4643 24.554C97.4643 23.2779 97.2613 22.0889 96.8553 20.9869C96.4493 19.8848 95.8237 18.9941 94.9785 18.3146C94.1333 17.6352 93.0562 17.2955 91.747 17.2955C90.4378 17.2955 89.3606 17.6352 88.5154 18.3146C87.6703 18.9941 87.0447 19.8848 86.6387 20.9869C86.2327 22.0889 86.0297 23.2779 86.0297 24.554C86.0297 25.83 86.2327 27.0149 86.6387 28.1087C87.0447 29.2024 87.6703 30.0849 88.5154 30.756C89.3606 31.4272 90.4378 31.7628 91.747 31.7628Z" fill="white"/>
<path d="M105.708 22.5156V34H102.775V8.54545H105.708V17.892H105.957C106.404 16.906 107.076 16.123 107.97 15.543C108.874 14.9547 110.075 14.6605 111.575 14.6605C112.876 14.6605 114.015 14.9215 114.993 15.4435C115.971 15.9573 116.729 16.7486 117.267 17.8175C117.814 18.8781 118.088 20.2287 118.088 21.8693V34H115.154V22.0682C115.154 20.5518 114.761 19.3794 113.974 18.5508C113.195 17.7139 112.113 17.2955 110.73 17.2955C109.768 17.2955 108.907 17.4985 108.144 17.9045C107.39 18.3105 106.794 18.9029 106.355 19.6818C105.924 20.4607 105.708 21.4053 105.708 22.5156ZM126.972 34.4474C125.762 34.4474 124.664 34.2196 123.678 33.7638C122.692 33.2998 121.909 32.6328 121.329 31.7628C120.749 30.8845 120.459 29.8239 120.459 28.581C120.459 27.4872 120.674 26.6006 121.105 25.9212C121.536 25.2334 122.112 24.6948 122.833 24.3054C123.554 23.916 124.349 23.6259 125.219 23.4354C126.098 23.2365 126.98 23.0791 127.867 22.9631C129.027 22.8139 129.967 22.7021 130.688 22.6275C131.417 22.5446 131.947 22.4079 132.279 22.2173C132.619 22.0268 132.788 21.6953 132.788 21.223V21.1236C132.788 19.8973 132.453 18.9444 131.782 18.2649C131.119 17.5855 130.112 17.2457 128.761 17.2457C127.361 17.2457 126.263 17.5523 125.468 18.1655C124.672 18.7786 124.113 19.4332 123.79 20.1293L121.006 19.1349C121.503 17.9749 122.166 17.0717 122.994 16.4254C123.831 15.7708 124.743 15.3151 125.729 15.0582C126.723 14.7931 127.701 14.6605 128.662 14.6605C129.275 14.6605 129.98 14.7351 130.775 14.8842C131.579 15.0251 132.353 15.3192 133.099 15.7667C133.853 16.2141 134.479 16.8894 134.976 17.7926C135.473 18.6958 135.722 19.9055 135.722 21.4219V34H132.788V31.4148H132.639C132.44 31.8291 132.109 32.2724 131.645 32.7447C131.181 33.217 130.564 33.6188 129.793 33.9503C129.022 34.2817 128.082 34.4474 126.972 34.4474ZM127.419 31.8125C128.579 31.8125 129.557 31.5846 130.352 31.1289C131.156 30.6732 131.761 30.0849 132.167 29.364C132.581 28.6431 132.788 27.8849 132.788 27.0895V24.4048C132.664 24.554 132.391 24.6907 131.968 24.815C131.554 24.931 131.073 25.0346 130.526 25.1257C129.988 25.2086 129.462 25.2831 128.948 25.3494C128.442 25.4074 128.032 25.4571 127.717 25.4986C126.955 25.598 126.243 25.7596 125.58 25.9833C124.925 26.1987 124.395 26.526 123.989 26.9652C123.591 27.3961 123.392 27.9844 123.392 28.7301C123.392 29.7493 123.769 30.5199 124.523 31.0419C125.286 31.5556 126.251 31.8125 127.419 31.8125ZM127.519 12.3239L130.551 6.55682H133.982L130.104 12.3239H127.519ZM139.373 34V8.54545H142.306V17.9418H142.555C142.77 17.6103 143.069 17.1877 143.45 16.674C143.839 16.152 144.395 15.688 145.115 15.282C145.845 14.8677 146.831 14.6605 148.073 14.6605C149.681 14.6605 151.098 15.0624 152.324 15.8661C153.551 16.6699 154.508 17.8092 155.195 19.2841C155.883 20.759 156.227 22.4991 156.227 24.5043C156.227 26.526 155.883 28.2785 155.195 29.7617C154.508 31.2366 153.555 32.3801 152.337 33.1921C151.119 33.9959 149.714 34.3977 148.123 34.3977C146.897 34.3977 145.915 34.1947 145.178 33.7887C144.44 33.3744 143.872 32.9062 143.475 32.3842C143.077 31.8539 142.77 31.4148 142.555 31.0668H142.207V34H139.373ZM142.257 24.4545C142.257 25.8963 142.468 27.1682 142.891 28.2702C143.313 29.364 143.93 30.2216 144.743 30.843C145.555 31.4562 146.549 31.7628 147.725 31.7628C148.952 31.7628 149.975 31.4396 150.795 30.7933C151.624 30.1387 152.245 29.2604 152.66 28.1584C153.082 27.0481 153.294 25.8134 153.294 24.4545C153.294 23.1122 153.087 21.9025 152.672 20.8253C152.266 19.7398 151.649 18.8822 150.82 18.2525C150 17.6145 148.968 17.2955 147.725 17.2955C146.532 17.2955 145.53 17.5979 144.718 18.2028C143.906 18.7994 143.292 19.6362 142.878 20.7134C142.464 21.7823 142.257 23.0294 142.257 24.4545ZM158.614 34V14.9091H161.547V34H158.614ZM160.105 11.7273C159.534 11.7273 159.04 11.5326 158.626 11.1431C158.22 10.7537 158.017 10.2855 158.017 9.73864C158.017 9.19176 158.22 8.7236 158.626 8.33416C159.04 7.94472 159.534 7.75 160.105 7.75C160.677 7.75 161.166 7.94472 161.572 8.33416C161.986 8.7236 162.193 9.19176 162.193 9.73864C162.193 10.2855 161.986 10.7537 161.572 11.1431C161.166 11.5326 160.677 11.7273 160.105 11.7273ZM167.753 8.54545V34H164.819V8.54545H167.753Z" fill="#7AE9CE"/>
<path d="M185.519 27.1165L185.406 28.2493C185.316 29.1555 185.145 30.0584 184.891 30.9577C184.643 31.864 184.383 32.6844 184.108 33.419C183.84 34.1536 183.624 34.7304 183.459 35.1491H180.617C180.72 34.7441 180.861 34.1777 181.039 33.4499C181.218 32.729 181.386 31.9189 181.544 31.0195C181.702 30.1201 181.801 29.2036 181.842 28.2699L181.894 27.1165H185.519ZM183.686 19.1868C183.006 19.1868 182.422 18.9465 181.935 18.4659C181.454 17.9853 181.214 17.4018 181.214 16.7152C181.214 16.0424 181.454 15.4691 181.935 14.9954C182.422 14.5148 183.006 14.2745 183.686 14.2745C184.345 14.2745 184.922 14.5148 185.416 14.9954C185.91 15.4691 186.157 16.0424 186.157 16.7152C186.157 17.1752 186.041 17.594 185.807 17.9716C185.581 18.3423 185.282 18.6375 184.911 18.8572C184.54 19.0769 184.132 19.1868 183.686 19.1868ZM200.156 21.5451C200.156 24.1059 199.813 26.4608 199.126 28.6097C198.447 30.7586 197.403 32.7496 195.996 34.5827H191.804C192.34 33.9031 192.837 33.0723 193.297 32.0906C193.757 31.1088 194.159 30.0378 194.502 28.8775C194.846 27.7103 195.113 26.502 195.306 25.2525C195.498 24.003 195.594 22.7672 195.594 21.5451C195.594 19.918 195.426 18.2771 195.089 16.6225C194.76 14.9611 194.307 13.4232 193.73 12.0089C193.16 10.5877 192.518 9.42401 191.804 8.51776H195.996C197.403 10.3509 198.447 12.3419 199.126 14.4908C199.813 16.6397 200.156 18.9911 200.156 21.5451Z" fill="#E8E8E8"/>
</svg>
