<svg width="196" height="33" viewBox="0 0 196 33" fill="none" xmlns="http://www.w3.org/2000/svg">
<path d="M8.54545 26.3636C6.90909 26.3636 5.5 25.9773 4.31818 25.2045C3.13636 24.4318 2.22727 23.3674 1.59091 22.0114C0.954546 20.6553 0.636364 19.1061 0.636364 17.3636C0.636364 15.5909 0.962121 14.0265 1.61364 12.6705C2.27273 11.3068 3.18939 10.2424 4.36364 9.47727C5.54545 8.70455 6.92424 8.31818 8.5 8.31818C9.72727 8.31818 10.8333 8.54545 11.8182 9C12.803 9.45455 13.6098 10.0909 14.2386 10.9091C14.8674 11.7273 15.2576 12.6818 15.4091 13.7727H12.7273C12.5227 12.9773 12.0682 12.2727 11.3636 11.6591C10.6667 11.0379 9.72727 10.7273 8.54545 10.7273C7.5 10.7273 6.58333 11 5.79545 11.5455C5.01515 12.0833 4.4053 12.8447 3.96591 13.8295C3.53409 14.8068 3.31818 15.9545 3.31818 17.2727C3.31818 18.6212 3.5303 19.7955 3.95455 20.7955C4.38636 21.7955 4.99242 22.572 5.77273 23.125C6.56061 23.678 7.48485 23.9545 8.54545 23.9545C9.24242 23.9545 9.875 23.8333 10.4432 23.5909C11.0114 23.3485 11.4924 23 11.8864 22.5455C12.2803 22.0909 12.5606 21.5455 12.7273 20.9091H15.4091C15.2576 21.9394 14.8826 22.8674 14.2841 23.6932C13.6932 24.5114 12.9091 25.1629 11.9318 25.6477C10.9621 26.125 9.83333 26.3636 8.54545 26.3636ZM24.5005 26.3636C22.9247 26.3636 21.5421 25.9886 20.3527 25.2386C19.1709 24.4886 18.2467 23.4394 17.58 22.0909C16.9209 20.7424 16.5914 19.1667 16.5914 17.3636C16.5914 15.5455 16.9209 13.9583 17.58 12.6023C18.2467 11.2462 19.1709 10.1932 20.3527 9.44318C21.5421 8.69318 22.9247 8.31818 24.5005 8.31818C26.0762 8.31818 27.455 8.69318 28.6368 9.44318C29.8262 10.1932 30.7505 11.2462 31.4095 12.6023C32.0762 13.9583 32.4095 15.5455 32.4095 17.3636C32.4095 19.1667 32.0762 20.7424 31.4095 22.0909C30.7505 23.4394 29.8262 24.4886 28.6368 25.2386C27.455 25.9886 26.0762 26.3636 24.5005 26.3636ZM24.5005 23.9545C25.6974 23.9545 26.6823 23.6477 27.455 23.0341C28.2277 22.4205 28.7997 21.6136 29.1709 20.6136C29.5421 19.6136 29.7277 18.5303 29.7277 17.3636C29.7277 16.197 29.5421 15.1098 29.1709 14.1023C28.7997 13.0947 28.2277 12.2803 27.455 11.6591C26.6823 11.0379 25.6974 10.7273 24.5005 10.7273C23.3035 10.7273 22.3186 11.0379 21.5459 11.6591C20.7732 12.2803 20.2012 13.0947 19.83 14.1023C19.4588 15.1098 19.2732 16.197 19.2732 17.3636C19.2732 18.5303 19.4588 19.6136 19.83 20.6136C20.2012 21.6136 20.7732 22.4205 21.5459 23.0341C22.3186 23.6477 23.3035 23.9545 24.5005 23.9545ZM23.2732 6.18182L26.0459 0.90909H29.1823L25.6368 6.18182H23.2732ZM41.1742 26.3636C39.7197 26.3636 38.4356 25.9962 37.3219 25.2614C36.2083 24.5189 35.3371 23.4735 34.7083 22.125C34.0795 20.7689 33.7651 19.1667 33.7651 17.3182C33.7651 15.4848 34.0795 13.8939 34.7083 12.5455C35.3371 11.197 36.2121 10.1553 37.3333 9.42045C38.4545 8.68561 39.75 8.31818 41.2197 8.31818C42.356 8.31818 43.2538 8.50758 43.9128 8.88636C44.5795 9.25758 45.0871 9.68182 45.4356 10.1591C45.7916 10.6288 46.0681 11.0152 46.2651 11.3182H46.4924V2.72727H49.1742V26H46.5833V23.3182H46.2651C46.0681 23.6364 45.7878 24.0379 45.4242 24.5227C45.0606 25 44.5416 25.428 43.8674 25.8068C43.1931 26.178 42.2954 26.3636 41.1742 26.3636ZM41.5378 23.9545C42.6136 23.9545 43.5227 23.6742 44.2651 23.1136C45.0075 22.5455 45.5719 21.7614 45.9583 20.7614C46.3447 19.7538 46.5378 18.5909 46.5378 17.2727C46.5378 15.9697 46.3484 14.8295 45.9697 13.8523C45.5909 12.8674 45.0303 12.1023 44.2878 11.5568C43.5454 11.0038 42.6288 10.7273 41.5378 10.7273C40.4015 10.7273 39.4545 11.0189 38.6969 11.6023C37.9469 12.178 37.3825 12.9621 37.0037 13.9545C36.6325 14.9394 36.4469 16.0455 36.4469 17.2727C36.4469 18.5152 36.6363 19.6439 37.0151 20.6591C37.4015 21.6667 37.9697 22.4697 38.7197 23.0682C39.4772 23.6591 40.4166 23.9545 41.5378 23.9545ZM52.5383 26V8.54545H55.2201V26H52.5383ZM53.9019 5.63636C53.3792 5.63636 52.9284 5.45833 52.5497 5.10227C52.1784 4.74621 51.9928 4.31818 51.9928 3.81818C51.9928 3.31818 52.1784 2.89015 52.5497 2.53409C52.9284 2.17803 53.3792 2 53.9019 2C54.4247 2 54.8716 2.17803 55.2428 2.53409C55.6216 2.89015 55.811 3.31818 55.811 3.81818C55.811 4.31818 55.6216 4.74621 55.2428 5.10227C54.8716 5.45833 54.4247 5.63636 53.9019 5.63636ZM65.2575 32.9091C63.962 32.9091 62.8484 32.7424 61.9166 32.4091C60.9848 32.0833 60.2083 31.6515 59.587 31.1136C58.9734 30.5833 58.4848 30.0152 58.1211 29.4091L60.2575 27.9091C60.4999 28.2273 60.8067 28.5909 61.178 29C61.5492 29.4167 62.0567 29.7765 62.7007 30.0795C63.3522 30.3902 64.2045 30.5455 65.2575 30.5455C66.6666 30.5455 67.8295 30.2045 68.7461 29.5227C69.6628 28.8409 70.1211 27.7727 70.1211 26.3182V22.7727H69.8939C69.6969 23.0909 69.4166 23.4848 69.053 23.9545C68.6969 24.4167 68.1817 24.8295 67.5075 25.1932C66.8408 25.5492 65.9393 25.7273 64.803 25.7273C63.3939 25.7273 62.1287 25.3939 61.0075 24.7273C59.8939 24.0606 59.0113 23.0909 58.3598 21.8182C57.7158 20.5455 57.3939 19 57.3939 17.1818C57.3939 15.3939 57.7083 13.8371 58.337 12.5114C58.9658 11.178 59.8408 10.1477 60.962 9.42045C62.0833 8.68561 63.3787 8.31818 64.8484 8.31818C65.9848 8.31818 66.8863 8.50758 67.553 8.88636C68.2272 9.25758 68.7423 9.68182 69.0984 10.1591C69.462 10.6288 69.7423 11.0152 69.9393 11.3182H70.212V8.54545H72.803V26.5C72.803 28 72.462 29.2197 71.7802 30.1591C71.106 31.1061 70.1969 31.7992 69.053 32.2386C67.9166 32.6856 66.6514 32.9091 65.2575 32.9091ZM65.1666 23.3182C66.2423 23.3182 67.1514 23.072 67.8939 22.5795C68.6363 22.0871 69.2007 21.3788 69.587 20.4545C69.9734 19.5303 70.1666 18.4242 70.1666 17.1364C70.1666 15.8788 69.9772 14.7689 69.5984 13.8068C69.2196 12.8447 68.659 12.0909 67.9166 11.5455C67.1742 11 66.2575 10.7273 65.1666 10.7273C64.0302 10.7273 63.0833 11.0152 62.3257 11.5909C61.5757 12.1667 61.0113 12.9394 60.6325 13.9091C60.2613 14.8788 60.0757 15.9545 60.0757 17.1364C60.0757 18.3485 60.2651 19.4205 60.6439 20.3523C61.0302 21.2765 61.5984 22.0038 62.3484 22.5341C63.106 23.0568 64.0454 23.3182 65.1666 23.3182ZM82.883 26.3636C81.3072 26.3636 79.9246 25.9886 78.7352 25.2386C77.5534 24.4886 76.6292 23.4394 75.9625 22.0909C75.3034 20.7424 74.9739 19.1667 74.9739 17.3636C74.9739 15.5455 75.3034 13.9583 75.9625 12.6023C76.6292 11.2462 77.5534 10.1932 78.7352 9.44318C79.9246 8.69318 81.3072 8.31818 82.883 8.31818C84.4587 8.31818 85.8375 8.69318 87.0193 9.44318C88.2087 10.1932 89.133 11.2462 89.792 12.6023C90.4587 13.9583 90.792 15.5455 90.792 17.3636C90.792 19.1667 90.4587 20.7424 89.792 22.0909C89.133 23.4394 88.2087 24.4886 87.0193 25.2386C85.8375 25.9886 84.4587 26.3636 82.883 26.3636ZM82.883 23.9545C84.0799 23.9545 85.0648 23.6477 85.8375 23.0341C86.6102 22.4205 87.1822 21.6136 87.5534 20.6136C87.9246 19.6136 88.1102 18.5303 88.1102 17.3636C88.1102 16.197 87.9246 15.1098 87.5534 14.1023C87.1822 13.0947 86.6102 12.2803 85.8375 11.6591C85.0648 11.0379 84.0799 10.7273 82.883 10.7273C81.686 10.7273 80.7011 11.0379 79.9284 11.6591C79.1557 12.2803 78.5837 13.0947 78.2125 14.1023C77.8413 15.1098 77.6557 16.197 77.6557 17.3636C77.6557 18.5303 77.8413 19.6136 78.2125 20.6136C78.5837 21.6136 79.1557 22.4205 79.9284 23.0341C80.7011 23.6477 81.686 23.9545 82.883 23.9545Z" fill="white"/>
<path d="M95.6476 15.5V26H92.9658V2.72727H95.6476V11.2727H95.8749C96.284 10.3712 96.8976 9.6553 97.7158 9.125C98.5416 8.58712 99.64 8.31818 101.011 8.31818C102.201 8.31818 103.242 8.55682 104.136 9.03409C105.03 9.50379 105.723 10.2273 106.216 11.2045C106.716 12.1742 106.966 13.4091 106.966 14.9091V26H104.284V15.0909C104.284 13.7045 103.924 12.6326 103.204 11.875C102.492 11.1098 101.504 10.7273 100.239 10.7273C99.3597 10.7273 98.5719 10.9129 97.8749 11.2841C97.1855 11.6553 96.64 12.197 96.2385 12.9091C95.8446 13.6212 95.6476 14.4848 95.6476 15.5ZM115.088 26.4091C113.982 26.4091 112.979 26.2008 112.077 25.7841C111.176 25.3598 110.46 24.75 109.929 23.9545C109.399 23.1515 109.134 22.1818 109.134 21.0455C109.134 20.0455 109.331 19.2348 109.725 18.6136C110.119 17.9848 110.645 17.4924 111.304 17.1364C111.963 16.7803 112.691 16.5152 113.486 16.3409C114.289 16.1591 115.096 16.0152 115.907 15.9091C116.967 15.7727 117.827 15.6705 118.486 15.6023C119.153 15.5265 119.638 15.4015 119.941 15.2273C120.251 15.053 120.407 14.75 120.407 14.3182V14.2273C120.407 13.1061 120.1 12.2348 119.486 11.6136C118.88 10.9924 117.96 10.6818 116.725 10.6818C115.444 10.6818 114.441 10.9621 113.713 11.5227C112.986 12.0833 112.475 12.6818 112.179 13.3182L109.634 12.4091C110.088 11.3485 110.694 10.5227 111.452 9.93182C112.217 9.33333 113.051 8.91667 113.952 8.68182C114.861 8.43939 115.755 8.31818 116.634 8.31818C117.194 8.31818 117.838 8.38636 118.566 8.52273C119.301 8.65151 120.009 8.92045 120.691 9.32954C121.38 9.73864 121.952 10.3561 122.407 11.1818C122.861 12.0076 123.088 13.1136 123.088 14.5V26H120.407V23.6364H120.27C120.088 24.0152 119.785 24.4205 119.361 24.8523C118.937 25.2841 118.372 25.6515 117.668 25.9545C116.963 26.2576 116.104 26.4091 115.088 26.4091ZM115.497 24C116.558 24 117.452 23.7917 118.179 23.375C118.914 22.9583 119.467 22.4205 119.838 21.7614C120.217 21.1023 120.407 20.4091 120.407 19.6818V17.2273C120.293 17.3636 120.043 17.4886 119.657 17.6023C119.278 17.7083 118.838 17.803 118.338 17.8864C117.846 17.9621 117.365 18.0303 116.895 18.0909C116.433 18.1439 116.058 18.1894 115.77 18.2273C115.073 18.3182 114.422 18.4659 113.816 18.6705C113.217 18.8674 112.732 19.1667 112.361 19.5682C111.997 19.9621 111.816 20.5 111.816 21.1818C111.816 22.1136 112.16 22.8182 112.85 23.2955C113.547 23.7652 114.429 24 115.497 24ZM115.588 6.18182L118.361 0.90909H121.497L117.952 6.18182H115.588ZM126.427 26V2.72727H129.109V11.3182H129.336C129.533 11.0152 129.806 10.6288 130.154 10.1591C130.51 9.68182 131.018 9.25758 131.677 8.88636C132.344 8.50758 133.245 8.31818 134.381 8.31818C135.851 8.31818 137.147 8.68561 138.268 9.42045C139.389 10.1553 140.264 11.197 140.893 12.5455C141.522 13.8939 141.836 15.4848 141.836 17.3182C141.836 19.1667 141.522 20.7689 140.893 22.125C140.264 23.4735 139.393 24.5189 138.279 25.2614C137.166 25.9962 135.881 26.3636 134.427 26.3636C133.306 26.3636 132.408 26.178 131.734 25.8068C131.06 25.428 130.541 25 130.177 24.5227C129.813 24.0379 129.533 23.6364 129.336 23.3182H129.018V26H126.427ZM129.063 17.2727C129.063 18.5909 129.256 19.7538 129.643 20.7614C130.029 21.7614 130.594 22.5455 131.336 23.1136C132.078 23.6742 132.988 23.9545 134.063 23.9545C135.185 23.9545 136.12 23.6591 136.87 23.0682C137.628 22.4697 138.196 21.6667 138.575 20.6591C138.961 19.6439 139.154 18.5152 139.154 17.2727C139.154 16.0455 138.965 14.9394 138.586 13.9545C138.215 12.9621 137.65 12.178 136.893 11.6023C136.143 11.0189 135.2 10.7273 134.063 10.7273C132.972 10.7273 132.056 11.0038 131.313 11.5568C130.571 12.1023 130.01 12.8674 129.631 13.8523C129.253 14.8295 129.063 15.9697 129.063 17.2727ZM144.018 26V8.54545H146.7V26H144.018ZM145.382 5.63636C144.859 5.63636 144.408 5.45833 144.03 5.10227C143.658 4.74621 143.473 4.31818 143.473 3.81818C143.473 3.31818 143.658 2.89015 144.03 2.53409C144.408 2.17803 144.859 2 145.382 2C145.905 2 146.352 2.17803 146.723 2.53409C147.102 2.89015 147.291 3.31818 147.291 3.81818C147.291 4.31818 147.102 4.74621 146.723 5.10227C146.352 5.45833 145.905 5.63636 145.382 5.63636ZM152.374 2.72727V26H149.692V2.72727H152.374Z" fill="#7AE9CE"/>
<path d="M179.751 22.8182L179.626 24.0682C179.527 25.0682 179.338 26.0644 179.057 27.0568C178.785 28.0568 178.497 28.9621 178.194 29.7727C177.898 30.5833 177.66 31.2197 177.478 31.6818H174.342C174.455 31.2348 174.611 30.6098 174.807 29.8068C175.004 29.0114 175.19 28.1174 175.364 27.125C175.539 26.1326 175.648 25.1212 175.694 24.0909L175.751 22.8182H179.751ZM177.728 14.0682C176.978 14.0682 176.334 13.803 175.796 13.2727C175.266 12.7424 175.001 12.0985 175.001 11.3409C175.001 10.5985 175.266 9.96591 175.796 9.44318C176.334 8.91288 176.978 8.64773 177.728 8.64773C178.455 8.64773 179.092 8.91288 179.637 9.44318C180.182 9.96591 180.455 10.5985 180.455 11.3409C180.455 11.8485 180.326 12.3106 180.069 12.7273C179.819 13.1364 179.489 13.4621 179.08 13.7045C178.671 13.947 178.22 14.0682 177.728 14.0682ZM195.902 16.6705C195.902 19.4962 195.523 22.0947 194.766 24.4659C194.016 26.8371 192.864 29.0341 191.311 31.0568H186.686C187.277 30.3068 187.826 29.3902 188.334 28.3068C188.842 27.2235 189.285 26.0417 189.664 24.7614C190.042 23.4735 190.338 22.1402 190.55 20.7614C190.762 19.3826 190.868 18.0189 190.868 16.6705C190.868 14.875 190.682 13.0644 190.311 11.2386C189.948 9.4053 189.448 7.70833 188.811 6.14773C188.182 4.57954 187.474 3.29545 186.686 2.29545H191.311C192.864 4.31818 194.016 6.51515 194.766 8.88636C195.523 11.2576 195.902 13.8523 195.902 16.6705Z" fill="#E8E8E8"/>
</svg>
