<svg width="167" height="36" viewBox="0 0 167 36" fill="none" xmlns="http://www.w3.org/2000/svg">
<path d="M9.44034 28.3977C7.65057 28.3977 6.10938 27.9751 4.81676 27.13C3.52415 26.2848 2.52983 25.1206 1.83381 23.6374C1.13778 22.1542 0.789773 20.4598 0.789773 18.554C0.789773 16.6151 1.14607 14.904 1.85866 13.4208C2.57955 11.9293 3.58215 10.7652 4.86648 9.92827C6.15909 9.0831 7.66714 8.66051 9.39062 8.66051C10.733 8.66051 11.9427 8.90909 13.0199 9.40625C14.0971 9.90341 14.9795 10.5994 15.6673 11.4943C16.355 12.3892 16.7817 13.4332 16.9474 14.6264H14.0142C13.7905 13.7564 13.2933 12.9858 12.5227 12.3146C11.7604 11.6352 10.733 11.2955 9.44034 11.2955C8.29688 11.2955 7.29427 11.5937 6.43253 12.1903C5.57907 12.7786 4.91205 13.6114 4.43146 14.6886C3.95916 15.7575 3.72301 17.0128 3.72301 18.4545C3.72301 19.9295 3.95502 21.2138 4.41903 22.3075C4.89134 23.4013 5.55421 24.2506 6.40767 24.8555C7.26941 25.4603 8.2803 25.7628 9.44034 25.7628C10.2027 25.7628 10.8945 25.6302 11.516 25.3651C12.1374 25.0999 12.6636 24.7188 13.0945 24.2216C13.5253 23.7244 13.8319 23.1278 14.0142 22.4318H16.9474C16.7817 23.5587 16.3716 24.5737 15.717 25.4769C15.0707 26.3718 14.2131 27.0844 13.1442 27.6147C12.0836 28.1367 10.849 28.3977 9.44034 28.3977ZM26.8911 28.3977C25.1676 28.3977 23.6554 27.9876 22.3545 27.1673C21.0619 26.3469 20.051 25.1993 19.3219 23.7244C18.601 22.2495 18.2406 20.526 18.2406 18.554C18.2406 16.5653 18.601 14.8294 19.3219 13.3462C20.051 11.863 21.0619 10.7113 22.3545 9.89098C23.6554 9.07067 25.1676 8.66051 26.8911 8.66051C28.6146 8.66051 30.1227 9.07067 31.4153 9.89098C32.7162 10.7113 33.7271 11.863 34.4479 13.3462C35.1771 14.8294 35.5417 16.5653 35.5417 18.554C35.5417 20.526 35.1771 22.2495 34.4479 23.7244C33.7271 25.1993 32.7162 26.3469 31.4153 27.1673C30.1227 27.9876 28.6146 28.3977 26.8911 28.3977ZM26.8911 25.7628C28.2003 25.7628 29.2775 25.4272 30.1227 24.756C30.9678 24.0849 31.5934 23.2024 31.9994 22.1087C32.4054 21.0149 32.6085 19.83 32.6085 18.554C32.6085 17.2779 32.4054 16.0889 31.9994 14.9869C31.5934 13.8848 30.9678 12.9941 30.1227 12.3146C29.2775 11.6352 28.2003 11.2955 26.8911 11.2955C25.5819 11.2955 24.5048 11.6352 23.6596 12.3146C22.8144 12.9941 22.1888 13.8848 21.7828 14.9869C21.3768 16.0889 21.1738 17.2779 21.1738 18.554C21.1738 19.83 21.3768 21.0149 21.7828 22.1087C22.1888 23.2024 22.8144 24.0849 23.6596 24.756C24.5048 25.4272 25.5819 25.7628 26.8911 25.7628ZM25.5488 6.32386L28.5815 0.556817H32.0119L28.134 6.32386H25.5488ZM45.128 28.3977C43.5371 28.3977 42.1327 27.9959 40.9146 27.1921C39.6966 26.3801 38.7437 25.2366 38.0559 23.7617C37.3682 22.2785 37.0243 20.526 37.0243 18.5043C37.0243 16.4991 37.3682 14.759 38.0559 13.2841C38.7437 11.8092 39.7007 10.6699 40.927 9.86612C42.1534 9.06238 43.5703 8.66051 45.1778 8.66051C46.4206 8.66051 47.4025 8.86766 48.1234 9.28196C48.8526 9.68797 49.4077 10.152 49.7889 10.674C50.1783 11.1877 50.4808 11.6103 50.6962 11.9418H50.9448V2.54545H53.878V28H51.0442V25.0668H50.6962C50.4808 25.4148 50.1742 25.8539 49.7765 26.3842C49.3787 26.9062 48.8112 27.3744 48.0737 27.7887C47.3363 28.1947 46.3544 28.3977 45.128 28.3977ZM45.5258 25.7628C46.7024 25.7628 47.6967 25.4562 48.5087 24.843C49.3207 24.2216 49.938 23.364 50.3606 22.2702C50.7832 21.1682 50.9945 19.8963 50.9945 18.4545C50.9945 17.0294 50.7874 15.7823 50.3731 14.7134C49.9588 13.6362 49.3456 12.7994 48.5336 12.2028C47.7215 11.5979 46.7189 11.2955 45.5258 11.2955C44.2829 11.2955 43.2471 11.6145 42.4185 12.2525C41.5982 12.8822 40.9809 13.7398 40.5666 14.8253C40.1606 15.9025 39.9576 17.1122 39.9576 18.4545C39.9576 19.8134 40.1647 21.0481 40.579 22.1584C41.0016 23.2604 41.6231 24.1387 42.4434 24.7933C43.272 25.4396 44.2994 25.7628 45.5258 25.7628ZM57.5575 28V8.90909H60.4908V28H57.5575ZM59.049 5.72727C58.4773 5.72727 57.9842 5.53255 57.5699 5.14311C57.1639 4.75367 56.9609 4.28551 56.9609 3.73864C56.9609 3.19176 57.1639 2.7236 57.5699 2.33416C57.9842 1.94472 58.4773 1.75 59.049 1.75C59.6207 1.75 60.1096 1.94472 60.5156 2.33416C60.9299 2.7236 61.1371 3.19176 61.1371 3.73864C61.1371 4.28551 60.9299 4.75367 60.5156 5.14311C60.1096 5.53255 59.6207 5.72727 59.049 5.72727ZM71.4691 35.5568C70.0522 35.5568 68.8342 35.3745 67.815 35.0099C66.7958 34.6536 65.9465 34.1813 65.2671 33.593C64.5959 33.013 64.0615 32.3916 63.6637 31.7287L66.0004 30.0881C66.2655 30.4361 66.6011 30.8338 67.0071 31.2812C67.4131 31.737 67.9683 32.1306 68.6726 32.462C69.3852 32.8017 70.3174 32.9716 71.4691 32.9716C73.0103 32.9716 74.2822 32.5987 75.2848 31.853C76.2874 31.1072 76.7887 29.9389 76.7887 28.348V24.4702H76.5402C76.3247 24.8182 76.0181 25.2491 75.6204 25.7628C75.231 26.2682 74.6675 26.7198 73.9301 27.1175C73.2009 27.507 72.2149 27.7017 70.972 27.7017C69.4308 27.7017 68.047 27.3371 66.8207 26.608C65.6027 25.8788 64.6373 24.8182 63.9247 23.4261C63.2204 22.0341 62.8683 20.3437 62.8683 18.3551C62.8683 16.3996 63.2122 14.6969 63.8999 13.2468C64.5876 11.7885 65.5447 10.6616 66.771 9.86612C67.9973 9.06238 69.4142 8.66051 71.0217 8.66051C72.2646 8.66051 73.2506 8.86766 73.9798 9.28196C74.7172 9.68797 75.2807 10.152 75.6701 10.674C76.0679 11.1877 76.3744 11.6103 76.5899 11.9418H76.8882V8.90909H79.722V28.5469C79.722 30.1875 79.3491 31.5215 78.6034 32.549C77.8659 33.5848 76.8716 34.3429 75.6204 34.8235C74.3775 35.3124 72.9938 35.5568 71.4691 35.5568ZM71.3697 25.0668C72.5463 25.0668 73.5406 24.7975 74.3527 24.2589C75.1647 23.7203 75.782 22.9455 76.2046 21.9347C76.6272 20.9238 76.8385 19.714 76.8385 18.3054C76.8385 16.9299 76.6313 15.716 76.217 14.6637C75.8027 13.6114 75.1895 12.7869 74.3775 12.1903C73.5655 11.5937 72.5629 11.2955 71.3697 11.2955C70.1268 11.2955 69.0911 11.6103 68.2625 12.2401C67.4422 12.8698 66.8248 13.715 66.4105 14.7756C66.0045 15.8362 65.8015 17.0128 65.8015 18.3054C65.8015 19.6312 66.0087 20.8036 66.423 21.8228C66.8456 22.8337 67.467 23.6291 68.2873 24.2092C69.1159 24.7809 70.1434 25.0668 71.3697 25.0668ZM90.747 28.3977C89.0235 28.3977 87.5113 27.9876 86.2104 27.1673C84.9178 26.3469 83.9069 25.1993 83.1777 23.7244C82.4569 22.2495 82.0964 20.526 82.0964 18.554C82.0964 16.5653 82.4569 14.8294 83.1777 13.3462C83.9069 11.863 84.9178 10.7113 86.2104 9.89098C87.5113 9.07067 89.0235 8.66051 90.747 8.66051C92.4705 8.66051 93.9785 9.07067 95.2711 9.89098C96.572 10.7113 97.5829 11.863 98.3038 13.3462C99.033 14.8294 99.3976 16.5653 99.3976 18.554C99.3976 20.526 99.033 22.2495 98.3038 23.7244C97.5829 25.1993 96.572 26.3469 95.2711 27.1673C93.9785 27.9876 92.4705 28.3977 90.747 28.3977ZM90.747 25.7628C92.0562 25.7628 93.1333 25.4272 93.9785 24.756C94.8237 24.0849 95.4493 23.2024 95.8553 22.1087C96.2613 21.0149 96.4643 19.83 96.4643 18.554C96.4643 17.2779 96.2613 16.0889 95.8553 14.9869C95.4493 13.8848 94.8237 12.9941 93.9785 12.3146C93.1333 11.6352 92.0562 11.2955 90.747 11.2955C89.4378 11.2955 88.3606 11.6352 87.5154 12.3146C86.6703 12.9941 86.0447 13.8848 85.6387 14.9869C85.2327 16.0889 85.0297 17.2779 85.0297 18.554C85.0297 19.83 85.2327 21.0149 85.6387 22.1087C86.0447 23.2024 86.6703 24.0849 87.5154 24.756C88.3606 25.4272 89.4378 25.7628 90.747 25.7628Z" fill="white"/>
<path d="M104.708 16.5156V28H101.775V2.54545H104.708V11.892H104.957C105.404 10.906 106.076 10.123 106.97 9.54297C107.874 8.95466 109.075 8.66051 110.575 8.66051C111.876 8.66051 113.015 8.92152 113.993 9.44354C114.971 9.95727 115.729 10.7486 116.267 11.8175C116.814 12.8781 117.088 14.2287 117.088 15.8693V28H114.154V16.0682C114.154 14.5518 113.761 13.3794 112.974 12.5508C112.195 11.7139 111.113 11.2955 109.73 11.2955C108.768 11.2955 107.907 11.4985 107.144 11.9045C106.39 12.3105 105.794 12.9029 105.355 13.6818C104.924 14.4607 104.708 15.4053 104.708 16.5156ZM125.972 28.4474C124.762 28.4474 123.664 28.2196 122.678 27.7638C121.692 27.2998 120.909 26.6328 120.329 25.7628C119.749 24.8845 119.459 23.8239 119.459 22.581C119.459 21.4872 119.674 20.6006 120.105 19.9212C120.536 19.2334 121.112 18.6948 121.833 18.3054C122.554 17.916 123.349 17.6259 124.219 17.4354C125.098 17.2365 125.98 17.0791 126.867 16.9631C128.027 16.8139 128.967 16.7021 129.688 16.6275C130.417 16.5446 130.947 16.4079 131.279 16.2173C131.619 16.0268 131.788 15.6953 131.788 15.223V15.1236C131.788 13.8973 131.453 12.9444 130.782 12.2649C130.119 11.5855 129.112 11.2457 127.761 11.2457C126.361 11.2457 125.263 11.5523 124.468 12.1655C123.672 12.7786 123.113 13.4332 122.79 14.1293L120.006 13.1349C120.503 11.9749 121.166 11.0717 121.994 10.4254C122.831 9.77083 123.743 9.3151 124.729 9.05824C125.723 8.79309 126.701 8.66051 127.662 8.66051C128.275 8.66051 128.98 8.73508 129.775 8.88423C130.579 9.02509 131.353 9.31925 132.099 9.76669C132.853 10.2141 133.479 10.8894 133.976 11.7926C134.473 12.6958 134.722 13.9055 134.722 15.4219V28H131.788V25.4148H131.639C131.44 25.8291 131.109 26.2724 130.645 26.7447C130.181 27.217 129.564 27.6188 128.793 27.9503C128.022 28.2817 127.082 28.4474 125.972 28.4474ZM126.419 25.8125C127.579 25.8125 128.557 25.5846 129.352 25.1289C130.156 24.6732 130.761 24.0849 131.167 23.364C131.581 22.6431 131.788 21.8849 131.788 21.0895V18.4048C131.664 18.554 131.391 18.6907 130.968 18.815C130.554 18.931 130.073 19.0346 129.526 19.1257C128.988 19.2086 128.462 19.2831 127.948 19.3494C127.442 19.4074 127.032 19.4571 126.717 19.4986C125.955 19.598 125.243 19.7596 124.58 19.9833C123.925 20.1987 123.395 20.526 122.989 20.9652C122.591 21.3961 122.392 21.9844 122.392 22.7301C122.392 23.7493 122.769 24.5199 123.523 25.0419C124.286 25.5556 125.251 25.8125 126.419 25.8125ZM126.519 6.32386L129.551 0.556817H132.982L129.104 6.32386H126.519ZM138.373 28V2.54545H141.306V11.9418H141.555C141.77 11.6103 142.069 11.1877 142.45 10.674C142.839 10.152 143.395 9.68797 144.115 9.28196C144.845 8.86766 145.831 8.66051 147.073 8.66051C148.681 8.66051 150.098 9.06238 151.324 9.86612C152.551 10.6699 153.508 11.8092 154.195 13.2841C154.883 14.759 155.227 16.4991 155.227 18.5043C155.227 20.526 154.883 22.2785 154.195 23.7617C153.508 25.2366 152.555 26.3801 151.337 27.1921C150.119 27.9959 148.714 28.3977 147.123 28.3977C145.897 28.3977 144.915 28.1947 144.178 27.7887C143.44 27.3744 142.872 26.9062 142.475 26.3842C142.077 25.8539 141.77 25.4148 141.555 25.0668H141.207V28H138.373ZM141.257 18.4545C141.257 19.8963 141.468 21.1682 141.891 22.2702C142.313 23.364 142.93 24.2216 143.743 24.843C144.555 25.4562 145.549 25.7628 146.725 25.7628C147.952 25.7628 148.975 25.4396 149.795 24.7933C150.624 24.1387 151.245 23.2604 151.66 22.1584C152.082 21.0481 152.294 19.8134 152.294 18.4545C152.294 17.1122 152.087 15.9025 151.672 14.8253C151.266 13.7398 150.649 12.8822 149.82 12.2525C149 11.6145 147.968 11.2955 146.725 11.2955C145.532 11.2955 144.53 11.5979 143.718 12.2028C142.906 12.7994 142.292 13.6362 141.878 14.7134C141.464 15.7823 141.257 17.0294 141.257 18.4545ZM157.614 28V8.90909H160.547V28H157.614ZM159.105 5.72727C158.534 5.72727 158.04 5.53255 157.626 5.14311C157.22 4.75367 157.017 4.28551 157.017 3.73864C157.017 3.19176 157.22 2.7236 157.626 2.33416C158.04 1.94472 158.534 1.75 159.105 1.75C159.677 1.75 160.166 1.94472 160.572 2.33416C160.986 2.7236 161.193 3.19176 161.193 3.73864C161.193 4.28551 160.986 4.75367 160.572 5.14311C160.166 5.53255 159.677 5.72727 159.105 5.72727ZM166.753 2.54545V28H163.819V2.54545H166.753Z" fill="#7AE9CE"/>
</svg>
