<svg xmlns="http://www.w3.org/2000/svg" version="1.1" xmlns:xlink="http://www.w3.org/1999/xlink" xmlns:svgjs="http://svgjs.com/svgjs" width="512" height="512" x="0" y="0" viewBox="0 0 512 512" style="enable-background:new 0 0 512 512" xml:space="preserve" class=""><g><g xmlns="http://www.w3.org/2000/svg"><path d="m414.179 125.627h-150.679v-36.026c0-4.142-3.357-7.5-7.5-7.5s-7.5 3.358-7.5 7.5v36.027h-150.679c-4.143 0-7.5 3.358-7.5 7.5v43.603c0 4.142 3.357 7.5 7.5 7.5s7.5-3.358 7.5-7.5v-36.103h143.179v73.531c0 4.142 3.357 7.5 7.5 7.5s7.5-3.358 7.5-7.5v-73.531h143.179v36.178c0 4.142 3.357 7.5 7.5 7.5s7.5-3.358 7.5-7.5v-43.678c0-4.143-3.358-7.501-7.5-7.501z" fill="#838383" data-original="#838383" class=""></path><g><path d="m97.821 292.46c-4.143 0-7.5-3.358-7.5-7.5v-62.229c0-4.142 3.357-7.5 7.5-7.5s7.5 3.358 7.5 7.5v62.229c0 4.143-3.357 7.5-7.5 7.5z" fill="#838383" data-original="#838383" class=""></path></g><g><path d="m193.456 446.654h-95.635c-4.143 0-7.5-3.358-7.5-7.5v-108.196c0-4.142 3.357-7.5 7.5-7.5s7.5 3.358 7.5 7.5v100.696h88.135c4.143 0 7.5 3.358 7.5 7.5s-3.357 7.5-7.5 7.5z" fill="#838383" data-original="#838383" class=""></path></g><g><path d="m414.179 446.654h-95.635c-4.143 0-7.5-3.358-7.5-7.5s3.357-7.5 7.5-7.5h88.135v-175.55c0-4.142 3.357-7.5 7.5-7.5s7.5 3.358 7.5 7.5v183.05c0 4.142-3.358 7.5-7.5 7.5z" fill="#838383" data-original="#838383" class=""></path></g><g><path d="m256 384.111c-4.143 0-7.5-3.358-7.5-7.5v-83.078c0-4.142 3.357-7.5 7.5-7.5s7.5 3.358 7.5 7.5v83.078c0 4.142-3.357 7.5-7.5 7.5z" fill="#838383" data-original="#838383" class=""></path></g><g><path d="m312.195 99.902h-112.39c-5.747 0-10.407-4.659-10.407-10.407v-79.088c0-5.748 4.66-10.407 10.407-10.407h112.39c5.747 0 10.406 4.659 10.406 10.407v79.089c.001 5.747-4.659 10.406-10.406 10.406z" fill="#ffe177" data-original="#ffe177" class=""></path></g><g><path d="m312.195 0h-33.301c5.747 0 10.406 4.659 10.406 10.407v79.089c0 5.747-4.659 10.407-10.406 10.407h33.301c5.747 0 10.406-4.659 10.406-10.407v-79.089c.001-5.748-4.658-10.407-10.406-10.407z" fill="#ffd15b" data-original="#ffd15b"></path></g><g><path d="m470.374 266.406h-112.39c-5.747 0-10.406-4.659-10.406-10.407v-79.089c0-5.747 4.659-10.406 10.406-10.406h112.39c5.747 0 10.407 4.659 10.407 10.406v79.09c-.001 5.747-4.66 10.406-10.407 10.406z" fill="#fe99a0" data-original="#fe99a0"></path></g><g><path d="m154.016 233.106h-112.39c-5.747 0-10.407-4.659-10.407-10.407v-45.789c0-5.747 4.659-10.406 10.407-10.406h112.39c5.747 0 10.407 4.659 10.407 10.406v45.789c0 5.748-4.659 10.407-10.407 10.407z" fill="#99e6fc" data-original="#99e6fc"></path></g><g><circle cx="256" cy="253.808" fill="#d9b1ee" r="49.951" data-original="#d9b1ee"></circle></g><g><path d="m275.791 207.939c2.622 6.07 4.083 12.759 4.083 19.791 0 27.587-22.364 49.951-49.951 49.951-7.032 0-13.721-1.46-19.791-4.083 7.665 17.741 25.314 30.16 45.869 30.16 27.587 0 49.951-22.364 49.951-49.951-.001-20.554-12.42-38.202-30.161-45.868z" fill="#cb97e7" data-original="#cb97e7"></path></g><g><path d="m244.505 507.239-56.59-56.589c-6.348-6.348-6.348-16.641 0-22.99l56.59-56.59c6.348-6.348 16.641-6.348 22.989 0l56.59 56.59c6.348 6.348 6.348 16.641 0 22.99l-56.59 56.589c-6.348 6.348-16.64 6.348-22.989 0z" fill="#bbec6c" data-original="#bbec6c" class=""></path></g><g><path d="m470.374 166.504h-33.301c5.747 0 10.407 4.659 10.407 10.406v79.09c0 5.747-4.659 10.407-10.407 10.407h33.301c5.747 0 10.407-4.659 10.407-10.407v-79.089c-.001-5.748-4.66-10.407-10.407-10.407z" fill="#fd8087" data-original="#fd8087"></path></g><g><path d="m154.016 166.504h-33.301c5.747 0 10.407 4.659 10.407 10.406v45.789c0 5.747-4.659 10.407-10.407 10.407h33.301c5.747 0 10.407-4.659 10.407-10.407v-45.789c0-5.747-4.659-10.406-10.407-10.406z" fill="#62dbfb" data-original="#62dbfb"></path></g><g><path d="m154.016 341.257h-112.39c-5.747 0-10.407-4.659-10.407-10.407v-45.789c0-5.747 4.659-10.406 10.407-10.406h112.39c5.747 0 10.407 4.659 10.407 10.406v45.789c0 5.748-4.659 10.407-10.407 10.407z" fill="#fea95c" data-original="#fea95c" class=""></path></g><g><path d="m154.016 274.656h-33.301c5.747 0 10.407 4.659 10.407 10.406v45.789c0 5.747-4.659 10.407-10.407 10.407h33.301c5.747 0 10.407-4.659 10.407-10.407v-45.789c0-5.747-4.659-10.406-10.407-10.406z" fill="#fe9738" data-original="#fe9738"></path></g><g><path d="m324.084 427.66-47.576-47.576c-3.365 20.967-12.261 45.516-26.307 69.845-7.995 13.848-16.887 26.284-26.103 36.903l20.407 20.407c6.348 6.348 16.641 6.348 22.989 0l56.59-56.59c6.349-6.348 6.349-16.641 0-22.989z" fill="#a2e62e" data-original="#a2e62e"></path></g></g></g></svg>